<svg width="128" height="128" viewBox="0 0 128 128" fill="none" xmlns="http://www.w3.org/2000/svg">
<path d="M89.8686 53.2849C91.9096 52.4395 94.276 53.4052 94.8603 55.5357C96.45 61.3314 96.3822 67.4867 94.6221 73.2891C92.473 80.3737 87.9339 86.4939 81.7782 90.607C75.6226 94.7201 68.2312 96.5716 60.8635 95.8459C53.4957 95.1203 46.6076 91.8624 41.3726 86.6274C36.1376 81.3924 32.8797 74.5043 32.1541 67.1366C31.4284 59.7688 33.2799 52.3774 37.393 46.2218C41.5061 40.0661 47.6263 35.527 54.7109 33.3779C60.5133 31.6178 66.6686 31.55 72.4643 33.1397C74.5947 33.724 75.5605 36.0904 74.7151 38.1314V38.1314C73.8697 40.1724 71.5315 41.1055 69.3786 40.6104C65.3194 39.677 61.0628 39.8111 57.0332 41.0334C51.7197 42.6452 47.1295 46.0496 44.0447 50.6663C40.9599 55.2831 39.5713 60.8266 40.1156 66.3524C40.6598 71.8782 43.1032 77.0443 47.0294 80.9706C50.9557 84.8968 56.1218 87.3402 61.6476 87.8844C67.1734 88.4287 72.7169 87.0401 77.3337 83.9553C81.9504 80.8705 85.3548 76.2803 86.9666 70.9668C88.189 66.9372 88.323 62.6806 87.3896 58.6214C86.8945 56.4685 87.8276 54.1303 89.8686 53.2849V53.2849Z" fill="#575279"/>
<path d="M103.204 44.0244C105.173 43.0215 107.598 43.7992 108.434 45.8442C112.226 55.1234 113.029 65.3933 110.674 75.2054C108.006 86.3185 101.46 96.115 92.2137 102.833C82.9675 109.551 71.6277 112.749 60.234 111.852C48.8402 110.955 38.1404 106.023 30.0589 97.9411C21.9774 89.8596 17.0447 79.1598 16.148 67.766C15.2513 56.3723 18.4494 45.0325 25.1672 35.7863C31.8849 26.5401 41.6815 19.9943 52.7946 17.3262C62.6067 14.9706 72.8766 15.7743 82.1558 19.5661C84.2008 20.4017 84.9785 22.8274 83.9756 24.7957V24.7957C82.9727 26.7641 80.5693 27.5261 78.5106 26.7247C70.9418 23.7782 62.6212 23.1944 54.6622 25.1052C45.4012 27.3286 37.2375 32.7834 31.6393 40.4886C26.0412 48.1938 23.3761 57.6436 24.1233 67.1384C24.8706 76.6331 28.9812 85.5497 35.7157 92.2843C42.4503 99.0188 51.3669 103.129 60.8616 103.877C70.3564 104.624 79.8062 101.959 87.5114 96.3607C95.2166 90.7625 100.671 82.5988 102.895 73.3378C104.806 65.3788 104.222 57.0582 101.275 49.4894C100.474 47.4307 101.236 45.0273 103.204 44.0244V44.0244Z" fill="#575279"/>
<circle cx="64" cy="64" r="16" fill="#907AA9"/>
<rect x="88" y="16" width="24" height="8" rx="4" fill="#907AA9"/>
<rect x="104" y="16" width="8" height="24" rx="4" fill="#907AA9"/>
<rect width="48" height="8" transform="translate(68.201 54.1421) rotate(-45)" fill="#907AA9"/>
</svg>
